<?xml version='1.0' encoding='utf-8'?>
<svg xmlns="http://www.w3.org/2000/svg" xmlns:xlink="http://www.w3.org/1999/xlink" version="1.1" x="0px" y="0px" width="24px" height="24px" viewBox="0 0 24 24" enable-background="new 0 0 24 24" fill="currentColor">
	<path fill="currentColor" fill-opacity="0.2" d="M5.62,15.004c-2.7,0-4.62-2.279-4.62-5.22c0-3.78,2.7-7.439,6.72-9.18c0.48-0.18,0.96,0,1.08,0.24c0.24,0.42,0.42,1.08-0.06,1.32c-2.94,1.74-4.5,3.84-4.5,5.76c0,0.72,0.24,0.9,0.6,0.9c0.06,0,0.18-0.06,0.3-0.06l0.3-0.06c0.24-0.06,0.48-0.12,0.78-0.12c1.68,0,2.88,1.38,2.88,3.06C9.1,13.564,7.54,15.004,5.62,15.004zM19.119,15.004c-2.7,0-4.62-2.279-4.62-5.22c0-3.78,2.7-7.439,6.72-9.18c0.36-0.12,0.9-0.18,1.2,0.18c0.24,0.42,0.36,1.08-0.18,1.38c-3,1.68-4.5,3.84-4.5,5.76c0,0.72,0.24,0.9,0.6,0.9c0.24,0,0.42-0.06,0.66-0.12s0.48-0.12,0.721-0.12c1.68,0,2.879,1.38,2.879,3.06C22.599,13.564,21.039,15.004,19.119,15.004z"/>
</svg>
