<?xml version='1.0' encoding='utf-8'?>
<svg xmlns="http://www.w3.org/2000/svg" xmlns:xlink="http://www.w3.org/1999/xlink" version="1.1" x="0px" y="0px" width="24px" height="24px" viewBox="0 0 24 24" enable-background="new 0 0 24 24" fill="currentColor">
	<path fill="currentColor" fill-opacity="0.2" d="M3.18,14.701c-0.18,0.061-0.96,0.359-1.32-0.12c-0.3-0.42-0.42-1.08,0.06-1.38c3.12-1.68,4.62-3.78,4.62-5.7c0-0.78-0.301-1.02-0.48-1.02c-0.24,0-0.54,0.12-0.72,0.18c-0.3,0.06-0.601,0.12-0.84,0.12c-1.62,0-2.88-1.32-2.88-3.06c0-1.92,1.56-3.36,3.541-3.36c2.579,0,4.619,2.22,4.619,5.28C9.779,9.241,7.08,12.901,3.18,14.701zM16.739,14.701c-0.42,0.18-1.08,0.42-1.38,0c-0.36-0.42-0.42-1.2,0.06-1.5c3.12-1.68,4.62-3.78,4.62-5.7c0-0.84-0.24-1.02-0.6-0.96c-0.12,0-0.24,0-0.301,0.06c-0.42,0.06-0.779,0.18-1.14,0.18c-1.62,0-2.88-1.32-2.88-3.06c0-1.92,1.561-3.36,3.54-3.36c2.58,0,4.62,2.22,4.62,5.28C23.279,9.241,20.639,12.901,16.739,14.701z"/>
</svg>
